    <svg xmlns="http://www.w3.org/2000/svg" width="1280" height="720" viewBox="0 0 640 360">
      <defs>
        <linearGradient id="g" x1="0" y1="0" x2="1" y2="1">
          <stop offset="0%" stop-color="#a855f7" stop-opacity="0.18"/><stop offset="100%" stop-color="#a855f7" stop-opacity="0.02"/>
        </linearGradient>
        <linearGradient id="gg" x1="0" y1="0" x2="1" y2="0"><stop offset="0%" stop-color="#a855f7"/><stop offset="100%" stop-color="#0BFFE4"/></linearGradient>
      </defs>
      <rect width="640" height="360" rx="16" fill="#08080e"/>
      <rect width="640" height="360" rx="16" fill="url(#g)"/>
      <rect width="640" height="28" rx="0" fill="rgba(255,255,255,0.06)"/>
      <circle cx="18" cy="14" r="5" fill="#ff5f57" stroke="rgba(0,0,0,0.12)"/><circle cx="32" cy="14" r="5" fill="#ffbd2e" stroke="rgba(0,0,0,0.12)"/><circle cx="46" cy="14" r="5" fill="#28c840" stroke="rgba(0,0,0,0.12)"/>
      <rect x="72" y="8" width="220" height="12" rx="6" fill="rgba(255,255,255,0.08)"/><text x="82" y="17" font-family="'JetBrains Mono', monospace" font-size="7" fill="rgba(255,255,255,0.35)">aadhiasarana.dev/linkova</text>
      <rect x="520" y="7" width="48" height="14" rx="7" fill="#a855f7" opacity="0.12" stroke="#a855f7" stroke-opacity="0.22"/><text x="544" y="16.5" text-anchor="middle" font-family="'JetBrains Mono', monospace" font-size="6" fill="#a855f7">Social</text>
      <g transform="translate(24,42)">
  <rect width="592" height="280" rx="12" fill="rgba(255,255,255,0.04)" stroke="rgba(255,255,255,0.07)"/>
  <rect x="14" y="14" width="150" height="252" rx="10" fill="rgba(255,255,255,0.02)" stroke="rgba(255,255,255,0.05)"/>
  <text x="24" y="34" font-family="'DM Sans', sans-serif" font-size="9" font-weight="700" fill="white">LINKOVA</text>
  <text x="24" y="44" font-family="'JetBrains Mono', monospace" font-size="6" fill="rgba(255,255,255,0.35)">MERN · Socket.io</text>
  <circle cx="28" cy="62" r="10" fill="rgba(168,85,247,0.18)"/><text x="46" y="60" font-family="'DM Sans', sans-serif" font-size="7" font-weight="600" fill="white">Aadhiasarana T</text><text x="46" y="68" font-family="'DM Sans', sans-serif" font-size="6" fill="rgba(255,255,255,0.4)">Full-stack · AI/DS</text>
  <rect x="178" y="14" width="300" height="252" rx="10" fill="rgba(255,255,255,0.02)" stroke="rgba(255,255,255,0.05)"/>
  <g transform="translate(190,24)">
    <circle r="8" fill="rgba(168,85,247,0.18)"/><text x="14" y="1" font-family="'DM Sans', sans-serif" font-size="6.5" font-weight="600" fill="white">Priya Sharma</text><text x="14" y="8" font-family="'DM Sans', sans-serif" font-size="5.5" fill="rgba(255,255,255,0.35)">2h · 🔔 Socket.io live</text>
    <text x="0" y="24" font-family="'DM Sans', sans-serif" font-size="6.5" fill="rgba(255,255,255,0.65)">Just shipped my MERN project with JWT refresh tokens!</text>
    <rect y="32" width="276" height="56" rx="6" fill="rgba(168,85,247,0.06)" stroke="rgba(168,85,247,0.12)"/><text x="10" y="46" font-family="'JetBrains Mono', monospace" font-size="6" fill="rgba(255,255,255,0.4)">▭ media upload · feed · likes</text>
    <g transform="translate(0,100)">
      <circle r="8" fill="rgba(255,255,255,0.08)"/><text x="14" y="1" font-family="'DM Sans', sans-serif" font-size="6.5" font-weight="600" fill="white">Rahul Dev</text><text x="14" y="8" font-family="'DM Sans', sans-serif" font-size="5.5" fill="rgba(255,255,255,0.35)">5h</text>
      <text x="0" y="24" font-family="'DM Sans', sans-serif" font-size="6.5" fill="rgba(255,255,255,0.65)">Anyone hiring MERN devs? Open to internships.</text>
    </g>
  </g>
  <rect x="490" y="14" width="84" height="252" rx="10" fill="rgba(168,85,247,0.06)" stroke="rgba(168,85,247,0.12)"/>
  <text x="500" y="32" font-family="'JetBrains Mono', monospace" font-size="6" fill="rgba(168,85,247,0.7)">NOTIFICATIONS</text>
  <circle cx="504" cy="46" r="3" fill="#a855f7"/><text x="512" y="48" font-family="'DM Sans', sans-serif" font-size="6" fill="white">3 new likes</text>
  <circle cx="504" cy="60" r="3" fill="#4FFFB0"/><text x="512" y="62" font-family="'DM Sans', sans-serif" font-size="6" fill="white">1 connection</text>
</g>
      <text x="24" y="350" font-family="'JetBrains Mono', monospace" font-size="6" letter-spacing="1" fill="rgba(255,255,255,0.22)">LINKOVA  ·  Social  ·  github.com/AADHIASARANATAMIZHINIAN</text>
    </svg>
