    <svg xmlns="http://www.w3.org/2000/svg" width="1280" height="720" viewBox="0 0 640 360">
      <defs>
        <linearGradient id="g" x1="0" y1="0" x2="1" y2="1">
          <stop offset="0%" stop-color="#eab308" stop-opacity="0.18"/><stop offset="100%" stop-color="#eab308" stop-opacity="0.02"/>
        </linearGradient>
        <linearGradient id="gg" x1="0" y1="0" x2="1" y2="0"><stop offset="0%" stop-color="#eab308"/><stop offset="100%" stop-color="#0BFFE4"/></linearGradient>
      </defs>
      <rect width="640" height="360" rx="16" fill="#08080e"/>
      <rect width="640" height="360" rx="16" fill="url(#g)"/>
      <rect width="640" height="28" rx="0" fill="rgba(255,255,255,0.06)"/>
      <circle cx="18" cy="14" r="5" fill="#ff5f57" stroke="rgba(0,0,0,0.12)"/><circle cx="32" cy="14" r="5" fill="#ffbd2e" stroke="rgba(0,0,0,0.12)"/><circle cx="46" cy="14" r="5" fill="#28c840" stroke="rgba(0,0,0,0.12)"/>
      <rect x="72" y="8" width="220" height="12" rx="6" fill="rgba(255,255,255,0.08)"/><text x="82" y="17" font-family="'JetBrains Mono', monospace" font-size="7" fill="rgba(255,255,255,0.35)">aadhiasarana.dev/queue</text>
      <rect x="520" y="7" width="48" height="14" rx="7" fill="#eab308" opacity="0.12" stroke="#eab308" stroke-opacity="0.22"/><text x="544" y="16.5" text-anchor="middle" font-family="'JetBrains Mono', monospace" font-size="6" fill="#eab308">CivicTech</text>
      <g transform="translate(24,42)">
  <rect width="592" height="280" rx="12" fill="rgba(255,255,255,0.04)" stroke="rgba(255,255,255,0.07)"/>
  <rect x="14" y="14" width="360" height="40" rx="8" fill="rgba(234,179,8,0.08)" stroke="rgba(234,179,8,0.16)"/>
  <text x="20" y="28" font-family="'DM Sans', sans-serif" font-size="8" font-weight="600" fill="white">Tamil Nadu e-Sevai — Token Board</text>
  <text x="20" y="38" font-family="'JetBrains Mono', monospace" font-size="6" fill="rgba(255,255,255,0.4)">Multi-counter · Real-time tracking</text>
  <text x="320" y="32" font-family="'Bebas Neue', sans-serif" font-size="20" fill="#eab308">NOW SERVING</text>
  <text x="330" y="42" font-family="'JetBrains Mono', monospace" font-size="6" fill="rgba(255,255,255,0.4)">Token A-042</text>
  <g transform="translate(14,66)">
    <rect width="172" height="64" rx="8" fill="rgba(234,179,8,0.10)" stroke="rgba(234,179,8,0.20)"/>
    <text x="12" y="20" font-family="'JetBrains Mono', monospace" font-size="6" fill="#eab308">COUNTER 1</text>
    <text x="12" y="38" font-family="'Bebas Neue', sans-serif" font-size="18" fill="white">A-042</text>
    <text x="50" y="38" font-family="'DM Sans', sans-serif" font-size="7" fill="rgba(255,255,255,0.5)">— Priya K.</text>
    <rect x="12" y="48" width="60" height="8" rx="4" fill="rgba(234,179,8,0.18)"/><rect x="16" y="50" width="38" height="4" rx="2" fill="#eab308"/>
    <rect width="172" height="64" rx="8" x="184" fill="rgba(255,255,255,0.03)" stroke="rgba(255,255,255,0.05)"/>
    <text x="196" y="20" font-family="'JetBrains Mono', monospace" font-size="6" fill="rgba(255,255,255,0.4)">COUNTER 2</text>
    <text x="196" y="38" font-family="'Bebas Neue', sans-serif" font-size="18" fill="white">B-011</text>
    <rect width="172" height="64" rx="8" x="368" fill="rgba(255,255,255,0.03)" stroke="rgba(255,255,255,0.05)"/>
    <text x="380" y="20" font-family="'JetBrains Mono', monospace" font-size="6" fill="rgba(255,255,255,0.4)">COUNTER 3</text>
    <text x="380" y="38" font-family="'Bebas Neue', sans-serif" font-size="18" fill="white">C-008</text>
    <text x="380" y="52" font-family="'DM Sans', sans-serif" font-size="6" fill="rgba(255,255,255,0.3)">Next: C-009</text>
  </g>
  <g transform="translate(14,142)">
    <rect width="360" height="96" rx="8" fill="rgba(255,255,255,0.02)" stroke="rgba(255,255,255,0.05)"/>
    <text x="12" y="18" font-family="'DM Sans', sans-serif" font-size="7" font-weight="600" fill="white">Queue — Today</text>
    <g font-family="'JetBrains Mono', monospace" font-size="6">
      <rect x="12" y="26" width="336" height="16" rx="6" fill="rgba(234,179,8,0.08)"/><text x="20" y="36" fill="white">A-043  waiting · Certificate</text><text x="300" y="36" fill="#eab308">2 min</text>
      <rect x="12" y="46" width="336" height="16" rx="6" fill="rgba(255,255,255,0.03)"/><text x="20" y="56" fill="rgba(255,255,255,0.6)">A-044  waiting · Land record</text>
      <rect x="12" y="66" width="336" height="16" rx="6" fill="rgba(255,255,255,0.03)"/><text x="20" y="76" fill="rgba(255,255,255,0.6)">B-012  waiting · Ration card</text>
    </g>
  </g>
  <rect x="388" y="142" width="186" height="96" rx="8" fill="#0a0a12" stroke="rgba(255,255,255,0.06)"/>
  <text x="400" y="160" font-family="'JetBrains Mono', monospace" font-size="6" fill="rgba(255,255,255,0.3)">ADMIN DASHBOARD</text>
  <text x="400" y="176" font-family="'DM Sans', sans-serif" font-size="7" fill="white">Avg wait 4.2 min</text>
  <text x="400" y="188" font-family="'DM Sans', sans-serif" font-size="6" fill="rgba(255,255,255,0.4)">32 tokens today · Node + Mongo</text>
</g>
      <text x="24" y="350" font-family="'JetBrains Mono', monospace" font-size="6" letter-spacing="1" fill="rgba(255,255,255,0.22)">QUEUE SYSTEM  ·  CivicTech  ·  github.com/AADHIASARANATAMIZHINIAN</text>
    </svg>
